# xmcd CD database file
#
# Track frame offsets:
#	150
#	19860
#	37982
#	61110
#	99242
#	112862
#	133515
#	157155
#	172187
#	196325
#	214372
#	230692
#	254332
#	280930
#	301105
#	327452
#
# Disc length: 4585 seconds
#
# Revision: 0
# Processed by: cddbd v1.5.1PL0 Copyright (c) Steve Scherf et al.
# Submitted via: CDex 1.51
#
DISCID=e011e710
DTITLE=Various Artist - Beat Express X'mas Eve CD-2
DYEAR=1991
DGENRE=Rock
TTITLE0=いつか王子様が
TTITLE1=CLEAN HEART
TTITLE2=CALLING YOU
TTITLE3=微笑みだけがそこにいる
TTITLE4=ラスト･ウィークはN.Y.で
TTITLE5=THIS CHRISTMAS
TTITLE6=NEW YORK CITY CHRISTMAS
TTITLE7=KISS KISS
TTITLE8=懐しき恋人の歌
TTITLE9=泣いた日 笑った日
TTITLE10=プロミス・ミー想い焦がれて
TTITLE11=X'mas
TTITLE12=MOUNTAIN CHRISTMAS
TTITLE13=賛美歌
TTITLE14=窓
TTITLE15=UNDER THE CHRISTMAS TREE
EXTD=YEAR: 1991
EXTT0=
EXTT1=
EXTT2=
EXTT3=
EXTT4=
EXTT5=
EXTT6=
EXTT7=
EXTT8=
EXTT9=
EXTT10=
EXTT11=
EXTT12=
EXTT13=
EXTT14=
EXTT15=
PLAYORDER=
